<?xml version="1.0" encoding="UTF-8" standalone="no"?>
<!-- Created with Inkscape (http://www.inkscape.org/) -->

<svg
   xmlns:dc="http://purl.org/dc/elements/1.1/"
   xmlns:cc="http://creativecommons.org/ns#"
   xmlns:rdf="http://www.w3.org/1999/02/22-rdf-syntax-ns#"
   xmlns:svg="http://www.w3.org/2000/svg"
   xmlns="http://www.w3.org/2000/svg"
   xmlns:sodipodi="http://sodipodi.sourceforge.net/DTD/sodipodi-0.dtd"
   xmlns:inkscape="http://www.inkscape.org/namespaces/inkscape"
   width="1000"
   height="311.80399"
   id="svg2"
   version="1.1"
   inkscape:version="0.48.5 r10040"
   sodipodi:docname="A.svg">
  <defs
     id="defs4">
    <clipPath
       clipPathUnits="userSpaceOnUse"
       id="clipPath3069">
      <path
         inkscape:connector-curvature="0"
         d="m 681.639,85.039 131.904,0 0,53.913 -131.904,0 0,-53.913 z"
         id="path3071" />
    </clipPath>
  </defs>
  <sodipodi:namedview
     id="base"
     pagecolor="#ffffff"
     bordercolor="#666666"
     borderopacity="1.0"
     inkscape:pageopacity="0.0"
     inkscape:pageshadow="2"
     inkscape:zoom="0.39781662"
     inkscape:cx="471.86289"
     inkscape:cy="-266.29912"
     inkscape:document-units="px"
     inkscape:current-layer="layer1"
     showgrid="false"
     fit-margin-left="0.5"
     fit-margin-bottom="0.5"
     fit-margin-top="0.5"
     fit-margin-right="0.5"
     inkscape:window-width="1064"
     inkscape:window-height="1020"
     inkscape:window-x="847"
     inkscape:window-y="-3"
     inkscape:window-maximized="0" />
  <metadata
     id="metadata7">
    <rdf:RDF>
      <cc:Work
         rdf:about="">
        <dc:format>image/svg+xml</dc:format>
        <dc:type
           rdf:resource="http://purl.org/dc/dcmitype/StillImage" />
        <dc:title></dc:title>
      </cc:Work>
    </rdf:RDF>
  </metadata>
  <g
     inkscape:label="Layer 1"
     inkscape:groupmode="layer"
     id="layer1"
     transform="translate(-587.5432,424.01674)">
    <g
       id="g3472"
       transform="matrix(9.4679379,0,0,-9.4679379,1587.0432,-126.46019)">
      <path
         inkscape:connector-curvature="0"
         d="m 0,0 c 0,-0.799 -0.653,-1.452 -1.453,-1.452 l -102.608,0 c -0.797,0 -1.453,0.653 -1.453,1.452 l 0,29.92 c 0,0.8 0.656,1.455 1.453,1.455 l 102.608,0 C -0.653,31.375 0,30.72 0,29.92"
         style="fill:#000000;fill-opacity:1;fill-rule:nonzero;stroke:none"
         id="path3474" />
    </g>
    <g
       id="g3476"
       transform="matrix(9.4679379,0,0,-9.4679379,1496.0942,-225.32439)">
      <path
         inkscape:connector-curvature="0"
         d="m 0,0 c 0.003,-0.056 0.005,-0.112 0.005,-0.169 0,0.004 0.001,0.006 0.001,0.011 C 0.006,-0.105 0.003,-0.053 0,0"
         style="fill:#1f4298;fill-opacity:1;fill-rule:nonzero;stroke:none"
         id="path3478" />
    </g>
    <g
       id="g3480"
       transform="matrix(9.4679379,0,0,-9.4679379,847.43627,-164.05737)">
      <path
         inkscape:connector-curvature="0"
         d="m 0,0 c -1.771,-1.697 -4.39,-2.089 -8.248,-2.089 l -5.488,0 c -7.681,0 -10.124,1.807 -10.124,8.033 l 0,3.397 7.364,0 c 0,-0.319 -0.036,-0.637 -0.036,-0.918 0,-3.115 0.778,-4.106 3.858,-4.106 l 3.541,0 c 2.831,0 3.326,1.062 3.326,3.644 l 0,15.962 7.86,0 0,-18.473 C 2.053,3.219 1.238,1.203 0,0"
         style="fill:#ffffff;fill-opacity:1;fill-rule:nonzero;stroke:none"
         id="path3482" />
    </g>
    <g
       id="g3484"
       transform="matrix(9.4679379,0,0,-9.4679379,1138.4239,-305.11071)">
      <path
         inkscape:connector-curvature="0"
         d="m 0,0 c 0,2.052 -1.311,2.9 -4.142,2.9 l -6.301,0 c -5.097,0 -6.335,-0.671 -6.335,-5.058 l 0,-3.574 c 0,-4.036 1.734,-4.849 6.335,-4.849 l 4.566,0 c 4.355,0 6.089,0.459 6.089,3.539 l 0,0.283 7.966,0 c 0.035,-0.673 0.07,-1.274 0.07,-1.876 0,-3.184 -0.744,-5.306 -2.584,-6.653 -1.947,-1.451 -5.027,-1.732 -9.522,-1.732 l -8.781,0 c -4.07,0 -6.938,0.174 -9.168,1.91 -2.159,1.699 -2.972,4.034 -2.972,7.537 l 0,7.007 c 0,7.713 3.362,9.907 12.14,9.907 l 8.781,0 c 4.495,0 7.539,-0.212 9.414,-1.66 C 7.223,6.404 7.93,4.282 7.93,1.203 c 0,-0.459 0,-0.956 -0.035,-1.451 l -7.895,0"
         style="fill:#ffffff;fill-opacity:1;fill-rule:nonzero;stroke:none"
         id="path3486" />
    </g>
    <g
       id="g3488"
       transform="matrix(9.4679379,0,0,-9.4679379,1480.9171,-224.70898)">
      <path
         inkscape:connector-curvature="0"
         d="m 0,0 c 0,1.379 -0.851,2.264 -2.16,2.264 l -14.513,0 0,-4.638 14.513,0 C -0.779,-2.374 0,-1.522 0,0 m -0.851,9.624 c 0,1.274 -0.813,2.123 -2.017,2.123 l -13.805,0 0,-4.245 13.805,0 c 1.311,0 2.017,0.742 2.017,2.122 m -23.682,-17.835 0,25.728 23.188,0 c 5.77,0 8.567,-2.336 8.567,-7.185 C 7.222,7.571 6.018,5.874 3.435,4.881 6.691,4.354 8.106,2.44 8.106,-1.24 c 0,-4.953 -2.548,-6.971 -8.249,-6.971"
         style="fill:#ffffff;fill-opacity:1;fill-rule:nonzero;stroke:none"
         id="path3490" />
    </g>
    <path
       inkscape:connector-curvature="0"
       d="m 621.34192,-290.38806 100.14238,0 0,-100.13291 -100.14238,0 0,100.13291 z"
       style="fill:#fcaf25;fill-opacity:1;fill-rule:nonzero;stroke:none"
       id="path3492" />
    <g
       id="g3494"
       transform="matrix(9.4679379,0,0,-9.4679379,683.28117,-358.917)">
      <path
         inkscape:connector-curvature="0"
         d="M 0,0 C 0,0 0.946,-0.136 1.035,-0.149 1.43,-0.213 1.6,-0.531 1.649,-0.68 1.666,-0.729 1.775,-1.075 1.788,-1.113 1.897,-1.402 1.623,-1.555 1.623,-1.555 c 0,0 0.313,-0.057 0.418,-0.306 0,0 0.197,-0.578 0.218,-0.636 C 2.276,-2.556 2.418,-3.018 1.938,-3.186 1.874,-3.209 1.101,-3.414 1.101,-3.414 L 0,0 z m 0.793,-0.709 c 0,0 0.227,-0.016 0.282,-0.02 0.055,-0.006 0.094,-0.032 0.117,-0.08 0.015,-0.03 0.098,-0.278 0.108,-0.304 0.01,-0.028 0.053,-0.176 -0.072,-0.18 l -0.244,0 -0.191,0.584 z m 0.395,-1.237 c 0,0 0.172,0.005 0.221,0.009 0.051,0.003 0.144,0.008 0.2,-0.102 C 1.623,-2.066 1.711,-2.333 1.723,-2.367 1.733,-2.4 1.76,-2.544 1.644,-2.57 1.622,-2.575 1.419,-2.615 1.419,-2.615"
         style="fill:#000000;fill-opacity:1;fill-rule:evenodd;stroke:none"
         id="path3496" />
    </g>
    <g
       id="g3498"
       transform="matrix(9.4679379,0,0,-9.4679379,683.28117,-358.917)">
      <path
         inkscape:connector-curvature="0"
         d="M 0,0 C 0,0 0.946,-0.136 1.035,-0.149 1.43,-0.213 1.6,-0.531 1.649,-0.68 1.666,-0.729 1.775,-1.075 1.788,-1.113 1.897,-1.402 1.623,-1.555 1.623,-1.555 c 0,0 0.313,-0.057 0.418,-0.306 0,0 0.197,-0.578 0.218,-0.636 C 2.276,-2.556 2.418,-3.018 1.938,-3.186 1.874,-3.209 1.101,-3.414 1.101,-3.414 L 0,0 z"
         style="fill:none;stroke:#000000;stroke-width:0.006;stroke-linecap:butt;stroke-linejoin:miter;stroke-miterlimit:3.86400008;stroke-opacity:1;stroke-dasharray:none"
         id="path3500" />
      <g
         id="g3502"
         transform="translate(0.793,-0.709)">
        <path
           inkscape:connector-curvature="0"
           d="M 0,0 C 0,0 0.227,-0.016 0.282,-0.02 0.337,-0.026 0.376,-0.052 0.399,-0.1 0.414,-0.13 0.497,-0.378 0.507,-0.404 0.517,-0.432 0.56,-0.58 0.435,-0.584 l -0.244,0 L 0,0 z"
           style="fill:none;stroke:#000000;stroke-width:0.006;stroke-linecap:butt;stroke-linejoin:miter;stroke-miterlimit:3.86400008;stroke-opacity:1;stroke-dasharray:none"
           id="path3504" />
        <g
           id="g3506"
           transform="translate(0.395,-1.237)">
          <path
             inkscape:connector-curvature="0"
             d="M 0,0 C 0,0 0.172,0.005 0.221,0.009 0.272,0.012 0.365,0.017 0.421,-0.093 0.435,-0.12 0.523,-0.387 0.535,-0.421 0.545,-0.454 0.572,-0.598 0.456,-0.624 0.434,-0.629 0.231,-0.669 0.231,-0.669 L 0,0 z"
             style="fill:none;stroke:#000000;stroke-width:0.006;stroke-linecap:butt;stroke-linejoin:miter;stroke-miterlimit:3.86400008;stroke-opacity:1;stroke-dasharray:none"
             id="path3508" />
        </g>
      </g>
    </g>
    <g
       id="g3510"
       transform="matrix(9.4679379,0,0,-9.4679379,647.0095,-364.35159)">
      <path
         inkscape:connector-curvature="0"
         d="m 0,0 1.552,-0.232 0.25,-0.845 -0.363,0.031 c 0,0 0.893,-2.856 0.923,-2.944 C 2.474,-4.313 2.543,-4.647 2.055,-4.807 1.991,-4.829 1.536,-4.959 1.481,-4.973 1.199,-5.039 0.841,-5.039 0.702,-4.601 l -0.568,1.766 0.697,0.05 c 0,0 0.288,-0.907 0.311,-0.975 0.063,-0.189 0.103,-0.261 0.301,-0.216 0.146,0.036 0.14,0.092 0.102,0.216 -0.018,0.054 -0.857,2.773 -0.857,2.773 l -0.396,0.031"
         style="fill:#000000;fill-opacity:1;fill-rule:nonzero;stroke:none"
         id="path3512" />
    </g>
    <g
       id="g3514"
       transform="matrix(9.4679379,0,0,-9.4679379,647.0095,-364.35159)">
      <path
         inkscape:connector-curvature="0"
         d="m 0,0 1.552,-0.232 0.25,-0.845 -0.363,0.031 c 0,0 0.893,-2.856 0.923,-2.944 C 2.474,-4.313 2.543,-4.647 2.055,-4.807 1.991,-4.829 1.536,-4.959 1.481,-4.973 1.199,-5.039 0.841,-5.039 0.702,-4.601 l -0.568,1.766 0.697,0.05 c 0,0 0.288,-0.907 0.311,-0.975 0.063,-0.189 0.103,-0.261 0.301,-0.216 0.146,0.036 0.14,0.092 0.102,0.216 -0.018,0.054 -0.857,2.773 -0.857,2.773 L 0.292,-0.956 0,0 z"
         style="fill:none;stroke:#000000;stroke-width:0.006;stroke-linecap:butt;stroke-linejoin:miter;stroke-miterlimit:3.86400008;stroke-opacity:1;stroke-dasharray:none"
         id="path3516" />
    </g>
    <g
       id="g3518"
       transform="matrix(9.4679379,0,0,-9.4679379,668.91831,-361.1609)">
      <path
         inkscape:connector-curvature="0"
         d="M 0,0 C 0.069,-0.01 0.566,-0.09 0.652,-0.103 0.736,-0.116 1.2,-0.193 1.323,-0.619 1.354,-0.727 1.599,-1.478 1.599,-1.478 L 1.01,-1.473 c 0,0 -0.11,0.365 -0.133,0.427 -0.058,0.153 -0.062,0.192 -0.237,0.219 -0.179,0.02 -0.17,-0.054 -0.13,-0.179 0.019,-0.067 0.555,-1.841 0.58,-1.917 0.062,-0.202 0.08,-0.281 0.266,-0.244 0.165,0.037 0.134,0.126 0.092,0.274 -0.013,0.05 -0.182,0.58 -0.182,0.58 l 0.586,0.044 c 0,0 0.298,-0.942 0.313,-0.986 C 2.182,-3.3 2.305,-3.682 1.95,-3.844 1.906,-3.866 1.906,-3.868 1.858,-3.884 1.813,-3.899 1.337,-4.033 1.294,-4.046 1.247,-4.058 0.796,-4.195 0.648,-3.751 0.635,-3.707 -0.319,-0.582 -0.37,-0.43 -0.456,-0.17 -0.364,0.053 0,0"
         style="fill:#000000;fill-opacity:1;fill-rule:nonzero;stroke:none"
         id="path3520" />
    </g>
    <g
       id="g3522"
       transform="matrix(9.4679379,0,0,-9.4679379,668.91831,-361.1609)">
      <path
         inkscape:connector-curvature="0"
         d="M 0,0 C 0.069,-0.01 0.566,-0.09 0.652,-0.103 0.736,-0.116 1.2,-0.193 1.323,-0.619 1.354,-0.727 1.599,-1.478 1.599,-1.478 L 1.01,-1.473 c 0,0 -0.11,0.365 -0.133,0.427 -0.058,0.153 -0.062,0.192 -0.237,0.219 -0.179,0.02 -0.17,-0.054 -0.13,-0.179 0.019,-0.067 0.555,-1.841 0.58,-1.917 0.062,-0.202 0.08,-0.281 0.266,-0.244 0.165,0.037 0.134,0.126 0.092,0.274 -0.013,0.05 -0.182,0.58 -0.182,0.58 l 0.586,0.044 c 0,0 0.298,-0.942 0.313,-0.986 C 2.182,-3.3 2.305,-3.682 1.95,-3.844 1.906,-3.866 1.906,-3.868 1.858,-3.884 1.813,-3.899 1.337,-4.033 1.294,-4.046 1.247,-4.058 0.796,-4.195 0.648,-3.751 0.635,-3.707 -0.319,-0.582 -0.37,-0.43 -0.456,-0.17 -0.364,0.053 0,0 z"
         style="fill:none;stroke:#000000;stroke-width:0.006;stroke-linecap:butt;stroke-linejoin:miter;stroke-miterlimit:3.86400008;stroke-opacity:1;stroke-dasharray:none"
         id="path3524" />
    </g>
    <g
       id="g3526"
       transform="matrix(9.4679379,0,0,-9.4679379,639.8328,-371.43361)">
      <path
         inkscape:connector-curvature="0"
         d="M 0,0 C 0.128,-0.019 5.651,-0.931 5.793,-0.953 5.934,-0.976 6.479,-1.032 6.695,-1.654 6.738,-1.773 7.425,-3.84 7.457,-3.942 7.579,-4.324 7.527,-4.724 7.023,-4.894 6.858,-4.948 2.118,-6.452 2.06,-6.471 1.929,-6.513 1.233,-6.822 0.979,-6.017 c 0,0 -1.535,4.824 -1.579,4.97 -0.071,0.227 -0.114,0.417 -0.114,0.56 C -0.715,0.138 -0.122,0.016 0,0 M 0.132,-0.255 C 0.423,-0.303 5.482,-1.126 5.707,-1.164 5.932,-1.201 6.309,-1.255 6.469,-1.726 6.498,-1.816 7.185,-3.869 7.214,-3.959 7.239,-4.048 7.439,-4.517 6.877,-4.691 6.792,-4.719 2.036,-6.201 1.921,-6.236 1.806,-6.271 1.356,-6.459 1.171,-5.81 c 0,0 -1.452,4.603 -1.518,4.808 -0.055,0.17 -0.094,0.307 -0.103,0.41 -0.028,0.378 0.207,0.389 0.398,0.363 0.073,-0.007 0.139,-0.02 0.184,-0.026"
         style="fill:#000000;fill-opacity:1;fill-rule:evenodd;stroke:none"
         id="path3528" />
    </g>
    <g
       id="g3530"
       transform="matrix(9.4679379,0,0,-9.4679379,639.8328,-371.43361)">
      <path
         inkscape:connector-curvature="0"
         d="M 0,0 C 0.128,-0.019 5.651,-0.931 5.793,-0.953 5.934,-0.976 6.479,-1.032 6.695,-1.654 6.738,-1.773 7.425,-3.84 7.457,-3.942 7.579,-4.324 7.527,-4.724 7.023,-4.894 6.858,-4.948 2.118,-6.452 2.06,-6.471 1.929,-6.513 1.233,-6.822 0.979,-6.017 c 0,0 -1.535,4.824 -1.579,4.97 -0.071,0.227 -0.114,0.417 -0.114,0.56 C -0.715,0.138 -0.122,0.016 0,0 z"
         style="fill:none;stroke:#000000;stroke-width:0.006;stroke-linecap:butt;stroke-linejoin:miter;stroke-miterlimit:3.86400008;stroke-opacity:1;stroke-dasharray:none"
         id="path3532" />
      <g
         id="g3534"
         transform="translate(0.132,-0.255)">
        <path
           inkscape:connector-curvature="0"
           d="M 0,0 C 0.291,-0.048 5.35,-0.871 5.575,-0.909 5.8,-0.946 6.177,-1 6.337,-1.471 6.366,-1.561 7.053,-3.614 7.082,-3.704 7.107,-3.793 7.307,-4.262 6.745,-4.436 6.66,-4.464 1.904,-5.946 1.789,-5.981 1.674,-6.016 1.224,-6.204 1.039,-5.555 c 0,0 -1.452,4.603 -1.518,4.808 -0.055,0.17 -0.094,0.307 -0.103,0.41 -0.028,0.378 0.207,0.389 0.398,0.363 C -0.111,0.019 -0.045,0.006 0,0 z"
           style="fill:none;stroke:#000000;stroke-width:0.006;stroke-linecap:butt;stroke-linejoin:miter;stroke-miterlimit:3.86400008;stroke-opacity:1;stroke-dasharray:none"
           id="path3536" />
      </g>
    </g>
  </g>
</svg>
